<?xml version="1.0" encoding="UTF-8"?>
<svg id="Layer_1" data-name="Layer 1" xmlns="http://www.w3.org/2000/svg" viewBox="0 0 212.55 104.47">
  <path d="M130.57,46.42c-.51,2.42-2.24,5.32-4.34,7.7-2.98,3.39-7.6,6.73-12.19,6.61-1.55-.04-3.66-1.14-4.46-2.63-.54-.99-1.04-3.21.27-5.74,1.64-3.15,6.67-6.81,11.45-8.08,1.71-.46,2.21-.55,3-.64,1.9-.15,2.79-.17,4.22.17,1.33.32,2.36,1.14,2.06,2.6M209.47,34.87c-1.8-.57-3.25.25-4.28,1.27-.17.15-.34.33-.49.53-.5.6-.86,1.19-1.06,1.56-3.6,5.36-7,10.57-12.86,16.47-1.51,1.52-6.73,5.9-11.84,5.76-.68-.02-2.74-.04-4.55-1.41-4.12-3.11.23-12.68,2.28-15.77.08-.12.6-.9,1.22-1.97,2.2-3.74-.51-5.71-1.05-6.05-.58-.37-2.52-1.17-4.38.01-.07.04-.14.09-.21.14-.03.02-.07.05-.1.08-.22.16-.41.34-.59.55-.22.24-.44.49-.64.81-.34.52-.49.75-.79,1.27-3.37,5.1-5.18,8.05-10.9,13.81-1.51,1.52-7.8,7.35-12.91,7.55-1.05.04-2.94.14-4.75-1.23-4.12-3.11.32-12.58,2.37-15.67.08-.12.59-.9,1.22-1.96,2.2-3.75-.51-5.71-1.05-6.05-.75-.48-3.75-1.68-5.92,1.58-.53.81-.6.93-1.48,2.49-.39.02-.78-.03-1.16-.19-2.95-1.21-7.65-2.55-13.28-1.8-1.17.16-11.55,2.14-17.56,11.03-2.39,3.54-3.25,7.18-2.47,10.53,1.39,6.05,7.58,8.6,8.11,8.81,6.66,2.64,15.68-.73,22.08-8.71h0c.22,1.21.91,3.17,2.83,5.26.72.77,2.66,2.15,5.67,3,0,0,1.66.4,3.5.4,6.74,0,11.83-1.81,20.19-10.24.09-.09.17-.18.26-.27.02.53.08,1.1.19,1.72.22,1.2.78,3.76,2.93,6.08.72.77,2.65,2.15,5.67,3.01,0,0,1.66.4,3.5.4,5.49,0,10.88-1.28,16.85-6.3,0,0,0,0,0,0l-1.96,3.73c-4.83,8.57-10.41,13.96-14.14,17.04-15.99,13.21-39.46,18.18-57.42,11.05-6.65-2.64-11.82-6.65-12.72-7.36-8-6.33-11.95-13.43-13.77-16.51-2.6-4.41-10.2-21.54-5.45-24.46,1.23-.76,4.42-1.64,7.47-2.85,10.18-4.04,25.86-18.17,34.3-29.19,1.09-1.42,1.57-2.27,2.02-3.07.59-1.05.98-2.6.91-3.84-.14-2.48-1.84-4.53-4.43-4.86-4.91-.62-6.72,3.15-8.21,6.64-1.61,3.77-1.88,4.95-4.8,9.09-4.45,6.31-12.42,13.42-18.41,16.53-5.71,2.96-9.76,2.02-7.14-3.64,2.49-5.37,5.71-12.45,4.59-18.98-.86-5.05-4.61-12.41-20.8-10.33-16.72,2.15-24.13,10.95-24.13,10.95-2.11,2.4-3.14,4.7-3.62,6.55-.75,2.85-.17,5.94,1.68,8.23,3.73,4.64,9.6,2.36,9.6,2.36,5.45-1.68,10.98-11.33,12.55-14.27.67-1.24,1.46-2.41,2.42-3.45,2.02-2.19,5.41-4.64,9.98-3.52,3.43.85,4.63,2.87,5.04,4.4.56,2.07-.04,5.47-.67,7.52-4.1,13.33-19.58,32.02-19.58,32.02-14.79,19.43-37.6,31.32-44.2,33.91-6.6,2.59-7.04,7.06-7.04,7.06-.95,3.87,3.21,9.38,8.4,7.67,5.18-1.71,12.96-7.28,12.96-7.28,19.68-12.38,33.81-33.31,36.71-36.13,2.89-2.83,4.03.47,4.03.47,0,0,4.34,10.85,7.47,16.01,3.14,5.15,19.24,33.36,57.35,31.2,32.72-1.86,49.59-25.22,54.89-34.34,4.28-7.37,14.36-28.93,14.36-28.93,1.42-4.85-2.79-5.93-2.79-5.93"/>
  <path d="M12.96,100.55c.89-3.64-3.66-9.01-7.97-8.1-3.12.66-5.79,4.54-4.76,7.94,1.14,3.75,6.2,4.88,9.42,3.54.59-.25,2.79-1.28,3.31-3.37"/>
</svg>